<?xml version="1.0" encoding="UTF-8"?> <svg xmlns="http://www.w3.org/2000/svg" xmlns:xlink="http://www.w3.org/1999/xlink" width="10.578" height="10.701" viewBox="0 0 10.578 10.701"><defs><clipPath id="clip-path"><rect id="Rectángulo_237" data-name="Rectángulo 237" width="10.578" height="10.701" fill="#fff" stroke="#fff" stroke-width="0.25"></rect></clipPath></defs><g id="Grupo_540" data-name="Grupo 540" transform="translate(0 0)"><g id="Grupo_539" data-name="Grupo 539" transform="translate(0 0)" clip-path="url(#clip-path)"><path id="Trazado_1187" data-name="Trazado 1187" d="M7.248,10.7a3.9,3.9,0,0,1-1-.133,8.4,8.4,0,0,1-3.682-2.28A8.272,8.272,0,0,1,.024,3.436,3.494,3.494,0,0,1,1.37.273L1.461.2A1.062,1.062,0,0,1,2.823.3l.963.963A1.044,1.044,0,0,1,3.8,2.722l-.451.587a.986.986,0,0,0-.127,1c.444,1.051,1.434,2.864,3.062,3.228a1.021,1.021,0,0,0,.84-.191l.73-.564a1.046,1.046,0,0,1,1.463.013l.967.963a1.067,1.067,0,0,1,.078,1.379L10.3,9.21A3.9,3.9,0,0,1,7.248,10.7M2.087.474a.546.546,0,0,0-.337.11L1.662.653A3,3,0,0,0,.5,3.377,7.8,7.8,0,0,0,2.9,7.951a7.96,7.96,0,0,0,3.471,2.157A3.4,3.4,0,0,0,9.927,8.915l.062-.078a.584.584,0,0,0-.042-.746l-.963-.963a.584.584,0,0,0-.8,0l-.023.019-.743.571A1.489,1.489,0,0,1,6.184,8c-1.839-.409-2.919-2.371-3.4-3.507a1.471,1.471,0,0,1,.185-1.469L3.453,2.4a.568.568,0,0,0,0-.8L2.486.63a.561.561,0,0,0-.4-.156" transform="translate(-0.001 0)" fill="#fff" stroke="#fff" stroke-width="0.25"></path></g></g></svg> 