<?xml version="1.0" encoding="UTF-8"?> <svg xmlns="http://www.w3.org/2000/svg" xmlns:xlink="http://www.w3.org/1999/xlink" width="7.497" height="11.095" viewBox="0 0 7.497 11.095"><defs><clipPath id="clip-path"><rect id="Rectángulo_236" data-name="Rectángulo 236" width="7.497" height="11.095" fill="#fff" stroke="#fff" stroke-width="0.25"></rect></clipPath></defs><g id="Grupo_538" data-name="Grupo 538" transform="translate(0 0)"><g id="Grupo_537" data-name="Grupo 537" transform="translate(0 0)" clip-path="url(#clip-path)"><path id="Trazado_1185" data-name="Trazado 1185" d="M2.859,5.046A2.157,2.157,0,1,1,5.017,2.89,2.16,2.16,0,0,1,2.859,5.046m0-3.986A1.829,1.829,0,1,0,4.688,2.89,1.831,1.831,0,0,0,2.859,1.06" transform="translate(0.889 0.928)" fill="#fff" stroke="#fff" stroke-width="0.25"></path><path id="Trazado_1186" data-name="Trazado 1186" d="M7.418,4.925A6.616,6.616,0,0,0,7.5,3.92,4.458,4.458,0,0,0,6.93,1.6,3.125,3.125,0,0,0,5.325.268,4.432,4.432,0,0,0,3.75,0,3.685,3.685,0,0,0,.994,1.04,4.054,4.054,0,0,0,0,3.92,6.616,6.616,0,0,0,.079,4.925.634.634,0,0,0,.1,5.016a9.683,9.683,0,0,0,1.9,4.156v0c.036.05.068.084.1.132.168.225.327.431.483.617.036.043.066.075.1.116.157.182.3.345.429.481l.091.1c.113.116.211.218.281.286.093.091.152.143.159.15a.162.162,0,0,0,.22,0c.009-.007.066-.059.159-.15.073-.07.175-.175.293-.3.03-.03.048-.048.079-.082.129-.136.275-.3.436-.488.032-.039.059-.068.093-.109.157-.184.318-.393.486-.617.036-.048.068-.082.1-.132l0,0A9.683,9.683,0,0,0,7.4,5.014a.554.554,0,0,0,.014-.089M5.622.772A3.6,3.6,0,0,1,7.168,3.92,9.124,9.124,0,0,1,5.1,9.163l-.039.048c-.175.229-.343.436-.5.62-.023.027-.043.052-.066.077-.15.173-.288.325-.406.449l-.041.043c-.125.132-.232.236-.3.306-.073-.07-.179-.177-.306-.309l-.034-.036c-.12-.127-.259-.281-.411-.456l-.064-.073c-.159-.184-.327-.393-.5-.622l-.039-.048A9.11,9.11,0,0,1,.329,3.92c0-.738.188-2.933,2.363-3.47A4.361,4.361,0,0,1,3.75.329,3.691,3.691,0,0,1,5.622.772" transform="translate(0 0)" fill="#fff" stroke="#fff" stroke-width="0.25"></path></g></g></svg> 