<?xml version="1.0" encoding="UTF-8"?> <svg xmlns="http://www.w3.org/2000/svg" xmlns:xlink="http://www.w3.org/1999/xlink" width="17" height="10" viewBox="0 0 17 10"><defs><clipPath id="clip-path"><rect id="Rectángulo_238" data-name="Rectángulo 238" width="17" height="10" transform="translate(0.162 0.162)" fill="#fff"></rect></clipPath></defs><g id="Grupo_542" data-name="Grupo 542" transform="translate(0.914 -4.086)"><g id="Grupo_541" data-name="Grupo 541" transform="translate(-1.075 3.925)" clip-path="url(#clip-path)"><path id="Trazado_1188" data-name="Trazado 1188" d="M12.8,1.964c-.006-.046.057-.08.034-.12-.046-.074-.143-.023-.211-.057s-.068-.154-.154-.154H.417c-.08,0-.086.114-.148.154S.1,1.77.057,1.844c-.023.04.04.074.034.12S0,2,0,2.055V9.013a.42.42,0,0,0,.417.422H12.471a.421.421,0,0,0,.422-.422V2.055c0-.051-.074-.046-.091-.091m-1.889.508L6.444,5.052,1.981,2.472ZM12.054,8.6H.839V2.78L6.238,5.9a.386.386,0,0,0,.205.057A.449.449,0,0,0,6.655,5.9l5.4-3.116Z" transform="translate(2.215 -0.212)" fill="#fff"></path></g></g></svg> 