<?xml version="1.0" encoding="UTF-8"?> <svg xmlns="http://www.w3.org/2000/svg" width="25" height="24" viewBox="0 0 25 24"><g id="Grupo_536" data-name="Grupo 536" transform="translate(-1010 -3229)"><path id="Trazado_580" data-name="Trazado 580" d="M12.5,0A12.258,12.258,0,0,1,25,12,12.258,12.258,0,0,1,12.5,24,12.258,12.258,0,0,1,0,12,12.258,12.258,0,0,1,12.5,0Z" transform="translate(1010 3229)" fill="#2385b4"></path><path id="Trazado_537" data-name="Trazado 537" d="M-429.03,60.549h-7.276a2.294,2.294,0,0,0-2.292,2.292v7.277a2.294,2.294,0,0,0,2.292,2.292h7.276a2.3,2.3,0,0,0,2.293-2.292V62.841A2.3,2.3,0,0,0-429.03,60.549Zm.658,1.368.262,0v2.01l-2,.007-.007-2.01Zm-5.988,3.346a2.086,2.086,0,0,1,1.693-.87,2.086,2.086,0,0,1,1.693.87,2.154,2.154,0,0,1,.126.2,2.067,2.067,0,0,1,.27,1.018,2.09,2.09,0,0,1-2.088,2.087,2.09,2.09,0,0,1-2.088-2.087,2.066,2.066,0,0,1,.27-1.018A2.194,2.194,0,0,1-434.36,65.262Zm6.468,4.855a1.138,1.138,0,0,1-1.137,1.137h-7.276a1.138,1.138,0,0,1-1.137-1.137V65.262h1.77a3.175,3.175,0,0,0-.114.335,3.208,3.208,0,0,0-.124.882,3.247,3.247,0,0,0,3.243,3.243,3.247,3.247,0,0,0,3.243-3.243,3.2,3.2,0,0,0-.125-.882,3.258,3.258,0,0,0-.115-.334h1.771v4.855Z" transform="translate(1455.013 3174.152)" fill="#fff"></path></g></svg> 